<svg xmlns="http://www.w3.org/2000/svg" width="24" height="24" viewBox="0 0 448.43 512">
  <path fill="#00c1f3" d="M256 0a18.73 18.73 0 00-18.73 18.73v93a18.73 18.73 0 0037.46 0v-93A18.73 18.73 0 00256 0zM256 381.54a18.73 18.73 0 00-18.73 18.73v93a18.73 18.73 0 0037.46 0v-93A18.73 18.73 0 00256 381.54zM140.42 167.64l-80.54-46.5a18.73 18.73 0 00-18.73 32.45l80.54 46.5a18.73 18.73 0 1018.73-32.45zM470.85 358.41l-80.54-46.5a18.73 18.73 0 10-18.73 32.45l80.53 46.5a18.74 18.74 0 0018.74-32.45zM121.69 311.92l-80.54 46.49a18.74 18.74 0 0018.74 32.45l80.53-46.5a18.73 18.73 0 10-18.73-32.44zM390.31 200.09l80.54-46.5a18.74 18.74 0 00-18.74-32.45l-80.53 46.5a18.73 18.73 0 1018.73 32.45z" transform="translate(-31.78)"/>
</svg>
